<svg xmlns="http://www.w3.org/2000/svg" viewBox="0 0 900 220" role="img" aria-labelledby="title desc">
  <title id="title">MedLink Logo</title>
  <desc id="desc">A clean MedLink wordmark with a medical cross and location pin motif.</desc>
  <defs>
    <linearGradient id="bg" x1="0" y1="0" x2="1" y2="1">
      <stop offset="0%" stop-color="#e8f5e9"/>
      <stop offset="100%" stop-color="#ffffff"/>
    </linearGradient>
    <linearGradient id="accent" x1="0" y1="0" x2="1" y2="1">
      <stop offset="0%" stop-color="#2e7d32"/>
      <stop offset="100%" stop-color="#1565c0"/>
    </linearGradient>
  </defs>

  <rect width="900" height="220" rx="28" fill="url(#bg)"/>

  <g transform="translate(52 42)">
    <circle cx="68" cy="68" r="68" fill="url(#accent)"/>
    <circle cx="68" cy="68" r="48" fill="#ffffff" opacity="0.16"/>
    <path d="M68 24c-7.2 0-13 5.8-13 13v18H37c-7.2 0-13 5.8-13 13s5.8 13 13 13h18v18c0 7.2 5.8 13 13 13s13-5.8 13-13V81h18c7.2 0 13-5.8 13-13s-5.8-13-13-13H81V37c0-7.2-5.8-13-13-13Z" fill="#ffffff"/>
    <path d="M68 136c25 0 44 20 44 45H24c0-25 19-45 44-45Z" fill="#ffffff" opacity="0.9"/>
  </g>

  <g transform="translate(210 62)">
    <text x="0" y="58" font-family="Inter, Arial, sans-serif" font-size="64" font-weight="800" fill="#12342a">MedLink</text>
    <text x="2" y="98" font-family="Inter, Arial, sans-serif" font-size="24" font-weight="600" fill="#4a6572">Arba Minch Pharmaceutical Ecosystem</text>
  </g>
</svg>